<svg width="41" height="40" viewBox="0 0 41 40" fill="none" xmlns="http://www.w3.org/2000/svg">
<g clip-path="url(#clip0_3_1686)">
<rect x="0.5" y="16.6667" width="23.3333" height="23.3333" fill="#7595FD"/>
<path d="M30.4999 26.6667H27.1666V25H13.8333V26.6667H10.4999V25H3.83325V33.3334H37.1666V25H30.4999V26.6667ZM33.8333 13.3334H28.8333V10C28.8333 8.16669 27.3333 6.66669 25.4999 6.66669H15.4999C13.6666 6.66669 12.1666 8.16669 12.1666 10V13.3334H7.16659C5.33325 13.3334 3.83325 14.8334 3.83325 16.6667V23.3334H10.4999V20H13.8333V23.3334H27.1666V20H30.4999V23.3334H37.1666V16.6667C37.1666 14.8334 35.6666 13.3334 33.8333 13.3334ZM25.4999 13.3334H15.4999V10H25.4999V13.3334Z" fill="white"/>
</g>
<defs>
<clipPath id="clip0_3_1686">
<rect width="40" height="40" fill="white" transform="translate(0.5)"/>
</clipPath>
</defs>
</svg>
